<svg id="Layer_1" data-name="Layer 1" xmlns="http://www.w3.org/2000/svg" viewBox="0 0 400 150"><polygon points="230.23 94.94 196.88 68.01 163.01 94.95 163.01 108.69 196.89 81.74 230.22 108.66 230.23 94.94" style="fill:#10507b"/><polygon points="230.23 67.5 196.88 40.54 163.01 67.49 163.01 81.22 196.89 54.27 230.22 81.22 230.23 67.5" style="fill:#6cb4e3"/><polygon points="218.87 72.03 218.87 60.75 209.58 60.75 209.58 64.53 196.89 54.27 158.24 85.02 158.21 98.76 196.89 67.99 234.96 98.76 234.96 85.05 218.87 72.03" style="fill:#2875b3"/><path d="M328.42,106.68a8.6,8.6,0,0,0,4.27,1.07c3.95,0,5.86-2.23,5.86-4.82s-1.44-3.82-4.27-4.91c-2.31-.9-3.33-1.67-3.33-3.24,0-1.14.87-2.51,3.16-2.51a6.67,6.67,0,0,1,3.18.8l.59-1.76a7.48,7.48,0,0,0-3.7-.82c-3.25,0-5.41,1.93-5.41,4.54,0,2.36,1.69,3.78,4.42,4.75,2.26.87,3.15,1.76,3.15,3.33s-1.29,2.85-3.5,2.85a7.58,7.58,0,0,1-3.87-1.09ZM317.56,92.5a8.91,8.91,0,0,1,2.14-.2c2.29,0,3.85,1,3.85,3.13,0,1.91-1.47,3.18-3.77,3.18h-2.22Zm-2.16,15h2.16v-7.25h2c2,.07,2.86.94,3.36,3.25a21.91,21.91,0,0,0,1.11,4h2.24a25.75,25.75,0,0,1-1.29-4.59c-.4-1.74-1.17-2.93-2.46-3.38v-.08a4.39,4.39,0,0,0,3.15-4.27A4.16,4.16,0,0,0,324.39,92c-1-.94-2.53-1.37-4.84-1.37a22.89,22.89,0,0,0-4.15.35ZM298.81,90.76v9.86c0,5.19,2.58,7.16,6,7.16,3.63,0,6.33-2.11,6.33-7.26V90.76H309v9.91c0,3.7-1.59,5.34-4.08,5.34-2.23,0-3.89-1.59-3.89-5.34V90.76ZM287.9,92.25c3.6,0,5.35,3.48,5.35,6.81,0,3.8-1.94,7-5.37,7s-5.34-3.2-5.34-6.78,1.78-7,5.36-7m.1-1.76c-4.47,0-7.77,3.47-7.77,8.79,0,5.07,3.1,8.5,7.52,8.5s7.78-3.06,7.78-8.82c0-5-3-8.47-7.53-8.47m-9.91,14.75a8.53,8.53,0,0,1-3.53.7c-4.07,0-6.43-2.63-6.43-6.73,0-4.4,2.61-6.91,6.53-6.91A8,8,0,0,1,278,93l.52-1.76a8.93,8.93,0,0,0-4-.74c-5.2,0-8.75,3.55-8.75,8.79,0,5.49,3.55,8.47,8.27,8.47a10.93,10.93,0,0,0,4.43-.79Zm-15.3-7.37h-6.51v-5.3h6.88V90.76h-9V107.5h9.41v-1.81h-7.25v-6h6.51Zm-22.26,8.81a8.6,8.6,0,0,0,4.27,1.07c3.95,0,5.87-2.23,5.87-4.82s-1.45-3.82-4.28-4.91c-2.31-.9-3.33-1.67-3.33-3.24,0-1.14.87-2.51,3.16-2.51a6.67,6.67,0,0,1,3.18.8l.6-1.76a7.56,7.56,0,0,0-3.71-.82c-3.25,0-5.41,1.93-5.41,4.54,0,2.36,1.69,3.78,4.42,4.75,2.26.87,3.16,1.76,3.16,3.33S247.16,106,245,106a7.58,7.58,0,0,1-3.87-1.09Z" style="fill:#10507b"/><path d="M331.14,85h2.39V68.74h5.59v-2H325.57v2h5.57Zm-10.51,0H323V66.73h-2.36Zm-14.85-.9a9.44,9.44,0,0,0,4.67,1.17c4.32,0,6.41-2.45,6.41-5.27s-1.58-4.18-4.67-5.38c-2.53-1-3.64-1.81-3.64-3.52,0-1.25.95-2.75,3.45-2.75a7.33,7.33,0,0,1,3.47.87l.65-1.93a8.31,8.31,0,0,0-4-.89c-3.56,0-5.92,2.12-5.92,5,0,2.57,1.85,4.12,4.83,5.18,2.47,1,3.45,1.93,3.45,3.64s-1.41,3.12-3.83,3.12a8.34,8.34,0,0,1-4.23-1.19Zm-15.26.9V77.21c0-3,0-5.24-.19-7.55l.08,0a61.14,61.14,0,0,0,3.42,6.11L299.64,85H302V66.73h-2.22v7.65c0,2.85.05,5.08.27,7.52l-.05,0a54.05,54.05,0,0,0-3.29-6l-5.87-9.25h-2.58V85Zm-15.93-7.6,1.79-5.3c.35-1.11.65-2.23.92-3.31h.05c.28,1.06.55,2.14.95,3.34l1.8,5.27Zm6,1.84,2,5.76h2.52l-6.24-18.3H276L269.75,85h2.44l1.9-5.76ZM258.21,68.63a9.65,9.65,0,0,1,2.34-.22c2.5,0,4.21,1.06,4.21,3.42,0,2.09-1.6,3.48-4.13,3.48h-2.42ZM255.85,85h2.36V77.1h2.23c2.14.08,3.12,1,3.67,3.56A23.26,23.26,0,0,0,265.33,85h2.44a29.79,29.79,0,0,1-1.41-5c-.44-1.9-1.28-3.2-2.69-3.69v-.08a4.81,4.81,0,0,0,3.45-4.67,4.59,4.59,0,0,0-1.44-3.48c-1.14-1-2.77-1.49-5.29-1.49a25.09,25.09,0,0,0-4.54.38Zm-10.56,0h2.39V68.74h5.59v-2H239.73v2h5.56Z" style="fill:#10507b"/><path d="M58,82.81A8.37,8.37,0,0,0,62.19,84C64.6,84,66,82.73,66,80.89s-1-2.68-3.44-3.64c-3-1-4.83-2.6-4.83-5.18,0-2.84,2.36-5,5.91-5a8.34,8.34,0,0,1,4.05.9L67,69.93a7.29,7.29,0,0,0-3.47-.87c-2.49,0-3.44,1.5-3.44,2.74,0,1.71,1.11,2.55,3.63,3.53,3.1,1.19,4.67,2.68,4.67,5.37S66.34,86,62,86a9.39,9.39,0,0,1-4.67-1.17Z" style="fill:#10507b"/><polygon points="74.29 67.41 74.29 75.06 83.13 75.06 83.13 67.41 85.51 67.41 85.51 85.69 83.13 85.69 83.13 77.12 74.29 77.12 74.29 85.69 71.93 85.69 71.93 67.41 74.29 67.41" style="fill:#10507b"/><polygon points="99.34 77.12 92.24 77.12 92.24 83.71 100.16 83.71 100.16 85.69 89.88 85.69 89.88 67.41 99.75 67.41 99.75 69.39 92.24 69.39 92.24 75.17 99.34 75.17 99.34 77.12" style="fill:#10507b"/><polygon points="103.5 67.41 105.86 67.41 105.86 83.71 113.66 83.71 113.66 85.69 103.5 85.69 103.5 67.41" style="fill:#10507b"/><polygon points="117.65 69.42 112.09 69.42 112.09 67.41 125.63 67.41 125.63 69.42 120.04 69.42 120.04 85.69 117.65 85.69 117.65 69.42" style="fill:#10507b"/><polygon points="137.4 77.12 130.29 77.12 130.29 83.71 138.21 83.71 138.21 85.69 127.93 85.69 127.93 67.41 137.8 67.41 137.8 69.39 130.29 69.39 130.29 75.17 137.4 75.17 137.4 77.12" style="fill:#10507b"/><path d="M143.91,76h2.41c2.52,0,4.12-1.38,4.12-3.47,0-2.36-1.71-3.39-4.2-3.42a9.49,9.49,0,0,0-2.33.22Zm-2.37-8.33a25.13,25.13,0,0,1,4.53-.37c2.53,0,4.15.45,5.29,1.49a4.55,4.55,0,0,1,1.44,3.47,4.8,4.8,0,0,1-3.44,4.66V77c1.41.49,2.24,1.79,2.68,3.69a28.62,28.62,0,0,0,1.41,5H151a23.26,23.26,0,0,1-1.22-4.37c-.54-2.52-1.52-3.47-3.66-3.55h-2.22v7.92h-2.37Z" style="fill:#10507b"/><path d="M73.69,100.36c-.14-2.55-.3-5.61-.27-7.89h-.09c-.62,2.14-1.38,4.42-2.3,6.94l-3.23,8.87H66l-3-8.71c-.87-2.57-1.6-4.93-2.12-7.1h0c0,2.28-.19,5.34-.35,8.08l-.49,7.84H57.8l1.27-18.28h3L65.2,99c.76,2.25,1.38,4.26,1.85,6.16h.08c.46-1.85,1.11-3.85,1.92-6.16l3.25-8.84h3l1.13,18.28h-2.3Z" style="fill:#10507b"/><path d="M81.8,99.36c0,3.9,2.12,7.4,5.83,7.4s5.86-3.44,5.86-7.59c0-3.63-1.9-7.43-5.83-7.43s-5.86,3.6-5.86,7.62M96,99.06c0,6.29-3.82,9.63-8.49,9.63s-8.21-3.75-8.21-9.28c0-5.8,3.61-9.6,8.48-9.6S96,93.64,96,99.06" style="fill:#10507b"/><path d="M103.33,108.39l-6-18.28h2.55l2.84,9c.79,2.47,1.47,4.7,2,6.84h0c.51-2.12,1.27-4.42,2.09-6.81l3.09-9h2.52l-6.53,18.28Z" style="fill:#10507b"/><polygon points="124.19 99.82 117.08 99.82 117.08 106.41 125 106.41 125 108.39 114.72 108.39 114.72 90.11 124.6 90.11 124.6 92.09 117.08 92.09 117.08 97.87 124.19 97.87 124.19 99.82" style="fill:#10507b"/><path d="M130.7,98.68h2.41c2.52,0,4.12-1.38,4.12-3.47,0-2.36-1.71-3.39-4.2-3.42a9.55,9.55,0,0,0-2.33.22Zm-2.36-8.32a24,24,0,0,1,4.53-.38c2.52,0,4.15.46,5.29,1.49a4.55,4.55,0,0,1,1.43,3.47,4.8,4.8,0,0,1-3.44,4.66v.09c1.41.48,2.25,1.78,2.68,3.68a29.58,29.58,0,0,0,1.41,5H137.8a24.1,24.1,0,0,1-1.22-4.37c-.54-2.52-1.52-3.47-3.66-3.55H130.7v7.92h-2.36Z" style="fill:#10507b"/><path d="M142.87,105.51a8.4,8.4,0,0,0,4.23,1.2c2.42,0,3.83-1.28,3.83-3.12s-1-2.68-3.45-3.64c-3-1-4.82-2.6-4.82-5.17,0-2.85,2.36-5,5.91-5a8.3,8.3,0,0,1,4,.9L152,92.64a7.22,7.22,0,0,0-3.47-.88c-2.5,0-3.45,1.5-3.45,2.74,0,1.71,1.12,2.55,3.64,3.53,3.09,1.19,4.66,2.68,4.66,5.37s-2.09,5.26-6.4,5.26a9.32,9.32,0,0,1-4.66-1.17Z" style="fill:#10507b"/></svg>